<svg xmlns="http://www.w3.org/2000/svg" viewBox="0 0 256 256"><g transform="translate(128 150) scale(1.06) translate(-128 -150)"><path d="M44 118 C34 196 70 262 128 266 C186 262 222 196 212 118 Z" fill="#8A5431" stroke="#2B1D14" stroke-width="6" stroke-linejoin="round" stroke-linecap="round"/><path d="M180 132 C194 170 188 214 162 240 C196 214 206 170 198 132 Z" fill="#77492b"/><path d="M70 134 C62 160 66 186 76 204" fill="none" stroke="#B27A4E" stroke-width="6" stroke-linecap="round" stroke-linejoin="round"/><path d="M168 92 L196 22 L214 16" fill="none" stroke="#2B1D14" stroke-width="13" stroke-linecap="round" stroke-linejoin="round"/><path d="M168 92 L196 22 L214 16" fill="none" stroke="#D9D6CC" stroke-width="6" stroke-linecap="round" stroke-linejoin="round"/><g fill="#2B1D14" stroke="#2B1D14" stroke-width="12"><circle cx="64" cy="104" r="18"/><circle cx="92" cy="94" r="20"/><circle cx="124" cy="90" r="20"/><circle cx="156" cy="92" r="20"/><circle cx="188" cy="102" r="18"/></g><g fill="#7FA83F"><circle cx="64" cy="104" r="18"/><circle cx="92" cy="94" r="20"/><circle cx="124" cy="90" r="20"/><circle cx="156" cy="92" r="20"/><circle cx="188" cy="102" r="18"/></g><circle cx="80" cy="98" r="3" fill="#5C8A2A"/><circle cx="110" cy="88" r="3" fill="#5C8A2A"/><circle cx="140" cy="90" r="3" fill="#5C8A2A"/><circle cx="170" cy="98" r="3" fill="#5C8A2A"/><circle cx="98" cy="104" r="3" fill="#5C8A2A"/><circle cx="150" cy="102" r="3" fill="#5C8A2A"/><path d="M38 108 C70 122 186 122 218 108 L216 128 C186 142 70 142 40 128 Z" fill="#D9D6CC" stroke="#2B1D14" stroke-width="6" stroke-linejoin="round" stroke-linecap="round"/><path d="M54 122 L62 130 L70 124 L78 132 L86 125 L94 133 L102 126 L110 134 L118 127 L126 135 L134 127 L142 134 L150 126 L158 133 L166 125 L174 132 L182 124 L190 130 L198 122" fill="none" stroke="#9E9A8E" stroke-width="3" stroke-linecap="round" stroke-linejoin="round"/><ellipse cx="104" cy="166" rx="15" ry="18" fill="#fff" stroke="#2B1D14" stroke-width="5" stroke-linejoin="round" stroke-linecap="round"/><circle cx="107" cy="168" r="7" fill="#2B1D14"/><circle cx="104.55" cy="165.34" r="2.24" fill="#fff"/><ellipse cx="152" cy="166" rx="15" ry="18" fill="#fff" stroke="#2B1D14" stroke-width="5" stroke-linejoin="round" stroke-linecap="round"/><circle cx="155" cy="168" r="7" fill="#2B1D14"/><circle cx="152.55" cy="165.34" r="2.24" fill="#fff"/><path d="M90.25 158.8 A15 18 0 0 1 117.75 158.8 Z" fill="#8A5431" stroke="#2B1D14" stroke-width="5" stroke-linejoin="round" stroke-linecap="round"/><path d="M89.25 158.8 L118.75 158.8" fill="none" stroke="#2B1D14" stroke-width="6" stroke-linecap="round" stroke-linejoin="round"/><path d="M86 140 Q102 136 118 142" fill="none" stroke="#2B1D14" stroke-width="8" stroke-linecap="round" stroke-linejoin="round"/><path d="M136 138 Q152 124 170 132" fill="none" stroke="#2B1D14" stroke-width="8" stroke-linecap="round" stroke-linejoin="round"/><ellipse cx="78" cy="196" rx="13" ry="8" fill="#E0584B" opacity=".45"/><ellipse cx="178" cy="196" rx="13" ry="8" fill="#E0584B" opacity=".45"/><path d="M106 198 C108 221.94 152 221.94 154 198 Q130 203 106 198 Z" fill="#5A1A14"/><path d="M115.6 214.74 C117.52 207 142.48 207 144.4 214.74 Q130 216.72 115.6 214.74 Z" fill="#E0584B"/><path d="M110 199.5 Q130 204 150 199.5 L146 203.4 Q130 204.48 114 203.4 Z" fill="#fff"/><path d="M106 198 C108 221.94 152 221.94 154 198 Q130 203 106 198 Z" fill="none" stroke="#2B1D14" stroke-width="5" stroke-linejoin="round" stroke-linecap="round"/></g></svg>
