<svg xmlns="http://www.w3.org/2000/svg" viewBox="0 0 256 256"><g transform="translate(128 150) scale(1.06) translate(-128 -150)"><path d="M20 280 C24 222 70 196 128 196 C186 196 232 222 236 280 Z" fill="#B8542A" stroke="#2B1D14" stroke-width="6" stroke-linejoin="round" stroke-linecap="round"/><path d="M66 196 L84 164 L96 200 L110 170 L120 204 L136 170 L146 204 L160 170 L172 200 L188 164 L190 204 Z" fill="#E0892F" stroke="#2B1D14" stroke-width="5" stroke-linejoin="round" stroke-linecap="round"/><path d="M90 66 C84 44 100 34 108 50 C106 30 128 22 132 46 C136 28 158 30 154 54 C166 44 180 56 166 74 Z" fill="#C4372D" stroke="#2B1D14" stroke-width="6" stroke-linejoin="round" stroke-linecap="round"/><path d="M76 126 C76 88 98 66 128 66 C158 66 180 88 180 126 C180 166 158 190 128 190 C98 190 76 166 76 126 Z" fill="#E0892F" stroke="#2B1D14" stroke-width="6" stroke-linejoin="round" stroke-linecap="round"/><path d="M118 158 C112 172 116 196 128 200 C140 196 144 172 138 158 Z" fill="#C4372D" stroke="#2B1D14" stroke-width="6" stroke-linejoin="round" stroke-linecap="round"/><path d="M110 140 L146 140 L128 164 Z" fill="#F6D77A" stroke="#2B1D14" stroke-width="5" stroke-linejoin="round" stroke-linecap="round"/><path d="M112 146 H144" fill="none" stroke="#2B1D14" stroke-width="3" stroke-linecap="round" stroke-linejoin="round"/><ellipse cx="104" cy="118" rx="14" ry="16" fill="#fff" stroke="#2B1D14" stroke-width="5" stroke-linejoin="round" stroke-linecap="round"/><circle cx="104" cy="118" r="5" fill="#2B1D14"/><circle cx="102.25" cy="116.1" r="2" fill="#fff"/><ellipse cx="152" cy="116" rx="16" ry="19" fill="#fff" stroke="#2B1D14" stroke-width="5" stroke-linejoin="round" stroke-linecap="round"/><circle cx="150" cy="116" r="8" fill="#2B1D14"/><circle cx="147.2" cy="112.96" r="2.56" fill="#fff"/><path d="M92.17 109.44 A14 16 0 0 1 117.67 121.44 Z" fill="#E0892F" stroke="#2B1D14" stroke-width="5" stroke-linejoin="round" stroke-linecap="round"/><path d="M91.17 109.44 L118.67 121.44" fill="none" stroke="#2B1D14" stroke-width="6" stroke-linecap="round" stroke-linejoin="round"/><path d="M84 92 L122 106" fill="none" stroke="#2B1D14" stroke-width="8" stroke-linecap="round" stroke-linejoin="round"/><path d="M168 86 L136 98" fill="none" stroke="#2B1D14" stroke-width="8" stroke-linecap="round" stroke-linejoin="round"/></g></svg>
