<svg xmlns="http://www.w3.org/2000/svg" viewBox="0 0 256 256"><g transform="translate(128 150) scale(1.06) translate(-128 -150)"><path d="M12 276 C16 230 56 208 100 204 L156 204 C200 208 240 230 244 276 Z" fill="#F0C2CF" stroke="#2B1D14" stroke-width="6" stroke-linejoin="round" stroke-linecap="round"/><path d="M108 176 L106 216 L150 216 L148 176 Z" fill="#e6ddcb" stroke="#2B1D14" stroke-width="6" stroke-linejoin="round" stroke-linecap="round"/><g fill="#2B1D14" stroke="#2B1D14" stroke-width="10"><circle cx="62" cy="150" r="14"/><circle cx="64" cy="174" r="14"/><circle cx="62" cy="198" r="13"/><circle cx="64" cy="220" r="12"/></g><g fill="#C9722E"><circle cx="62" cy="150" r="14"/><circle cx="64" cy="174" r="14"/><circle cx="62" cy="198" r="13"/><circle cx="64" cy="220" r="12"/></g><path d="M50 232 L46 248 L62 238 L78 248 L74 232 Z" fill="#2E5C9C" stroke="#2B1D14" stroke-width="5" stroke-linejoin="round" stroke-linecap="round"/><g fill="#2B1D14" stroke="#2B1D14" stroke-width="10"><circle cx="192" cy="150" r="14"/><circle cx="194" cy="174" r="14"/><circle cx="192" cy="198" r="13"/><circle cx="194" cy="220" r="12"/></g><g fill="#C9722E"><circle cx="192" cy="150" r="14"/><circle cx="194" cy="174" r="14"/><circle cx="192" cy="198" r="13"/><circle cx="194" cy="220" r="12"/></g><path d="M180 232 L176 248 L192 238 L208 248 L204 232 Z" fill="#2E5C9C" stroke="#2B1D14" stroke-width="5" stroke-linejoin="round" stroke-linecap="round"/><ellipse cx="67.23" cy="140.57" rx="10.62" ry="14.88" fill="#FBF2DF" stroke="#2B1D14" stroke-width="6" stroke-linejoin="round" stroke-linecap="round"/><ellipse cx="188.77" cy="140.57" rx="10.62" ry="14.88" fill="#FBF2DF" stroke="#2B1D14" stroke-width="6" stroke-linejoin="round" stroke-linecap="round"/><path d="M69 139.58 C69 96.8 95.55 72 128 72 C160.45 72 187 96.8 187 139.58 C187 178.02 162.22 196 128 196 C93.78 196 69 178.02 69 139.58 Z" fill="#FBF2DF" stroke="#2B1D14" stroke-width="6" stroke-linejoin="round" stroke-linecap="round"/><path d="M187 139.58 C187 96.8 160.45 72 128 72 C151.6 81.05 172.01 103.62 172.01 139.58 C172.96 171.2 157.5 189.18 134.37 195.13 C166.35 191.54 187 175.66 187 139.58 Z" fill="#e8dfcd"/><path d="M68 132 C62 94 88 68 128 68 C168 68 194 94 188 132 C176 110 156 96 128 96 C100 96 80 110 68 132 Z" fill="#C9722E" stroke="#2B1D14" stroke-width="6" stroke-linejoin="round" stroke-linecap="round"/><path d="M128 70 L128 96" fill="none" stroke="#2B1D14" stroke-width="5" stroke-linecap="round" stroke-linejoin="round"/><circle cx="92" cy="158" r="2.6" fill="#b96a2b"/><circle cx="100" cy="164" r="2.6" fill="#b96a2b"/><circle cx="86" cy="166" r="2.6" fill="#b96a2b"/><circle cx="164" cy="158" r="2.6" fill="#b96a2b"/><circle cx="172" cy="164" r="2.6" fill="#b96a2b"/><circle cx="158" cy="166" r="2.6" fill="#b96a2b"/><ellipse cx="86" cy="158" rx="13" ry="8" fill="#E0584B" opacity=".45"/><ellipse cx="170" cy="158" rx="13" ry="8" fill="#E0584B" opacity=".45"/><ellipse cx="106" cy="136" rx="14" ry="17" fill="#fff" stroke="#2B1D14" stroke-width="5" stroke-linejoin="round" stroke-linecap="round"/><circle cx="108" cy="135" r="7" fill="#2B1D14"/><circle cx="105.55" cy="132.34" r="2.24" fill="#fff"/><path d="M162 127 L142 136 L162 145" fill="none" stroke="#2B1D14" stroke-width="6" stroke-linecap="round" stroke-linejoin="round"/><path d="M92 114 Q104 108 118 114" fill="none" stroke="#2B1D14" stroke-width="6" stroke-linecap="round" stroke-linejoin="round"/><path d="M140 116 Q152 112 164 118" fill="none" stroke="#2B1D14" stroke-width="6" stroke-linecap="round" stroke-linejoin="round"/><path d="M110 172 C112 187.96 144 187.96 146 172 Q128 177 110 172 Z" fill="#5A1A14"/><path d="M114 173.5 Q128 178 142 173.5 L138 175.6 Q128 176.32 118 175.6 Z" fill="#fff"/><path d="M110 172 C112 187.96 144 187.96 146 172 Q128 177 110 172 Z" fill="none" stroke="#2B1D14" stroke-width="5" stroke-linejoin="round" stroke-linecap="round"/><path d="M124 178 C122 196 128 206 136 206 C146 206 148 194 142 178 Z" fill="#E86B7A" stroke="#2B1D14" stroke-width="5" stroke-linejoin="round" stroke-linecap="round"/></g></svg>
